<mxfile host="app.diagrams.net" modified="2021-06-05T15:04:44.669Z" agent="5.0 (Macintosh; Intel Mac OS X 10_14_3) AppleWebKit/537.36 (KHTML, like Gecko) Chrome/90.0.4430.212 Safari/537.36" etag="GrlQSkK_eD5DyogboNiv" version="14.7.5" type="github">
  <diagram id="3228e29e-7158-1315-38df-8450db1d8a1d" name="Page-1">
    <mxGraphModel dx="465" dy="471" grid="0" gridSize="10" guides="1" tooltips="1" connect="1" arrows="1" fold="1" page="1" pageScale="1" pageWidth="600" pageHeight="300" background="#EFF1F3" math="0" shadow="1">
      <root>
        <mxCell id="0" />
        <mxCell id="1" parent="0" />
        <mxCell id="XKSM3SLSt8vgWnCwVl54-1" value="" style="shape=image;html=1;verticalAlign=top;verticalLabelPosition=bottom;labelBackgroundColor=#ffffff;imageAspect=0;aspect=fixed;image=https://cdn3.iconfinder.com/data/icons/linecons-free-vector-icons-pack/32/truck-128.png;fontColor=#535E80;" parent="1" vertex="1">
          <mxGeometry x="200" y="32" width="213" height="213" as="geometry" />
        </mxCell>
        <mxCell id="2wqDNAmPXuk4lVCNSkIf-4" value="&lt;font style=&quot;font-size: 36px&quot; color=&quot;#535e80&quot;&gt;ICMP&lt;/font&gt;" style="text;html=1;strokeColor=none;fillColor=none;align=center;verticalAlign=middle;whiteSpace=wrap;rounded=0;" parent="1" vertex="1">
          <mxGeometry x="180" y="104" width="180" height="20" as="geometry" />
        </mxCell>
        <mxCell id="2wqDNAmPXuk4lVCNSkIf-6" value="&lt;font style=&quot;font-size: 48px&quot;&gt;IP&lt;/font&gt;" style="text;html=1;strokeColor=none;fillColor=none;align=center;verticalAlign=middle;whiteSpace=wrap;rounded=0;fontColor=#4A919B;" parent="1" vertex="1">
          <mxGeometry x="224" y="199" width="172" height="93" as="geometry" />
        </mxCell>
      </root>
    </mxGraphModel>
  </diagram>
</mxfile>
